<?xml version="1.0" standalone="no"?>
<!DOCTYPE svg PUBLIC "-//W3C//DTD SVG 20010904//EN"
 "http://www.w3.org/TR/2001/REC-SVG-20010904/DTD/svg10.dtd">
<svg xmlns="http://www.w3.org/2000/svg" version="1.0" width="55.000000pt" height="18.000000pt" viewBox="0 0 500.000000 339.000000" preserveAspectRatio="xMidYMid meet">
<g transform="translate(-800.000000,850.000000) scale(0.20000,-0.200000)" fill="#107ce1" stroke="none">

<path d="M6695 3600 l-79 -5 -1 -113 c-1 -126 -4 -132 -67 -132 l-38 0 0 -75 0 -75 37 0 c69 0 71 -7 66 -219 -7 -287 13 -356 114 -401 39 -17 64 -20 143 -18 93 3 95 4 99 28 1 14 -3 49 -10 77 l-12 53 -53 0 c-46 0 -55 4 -78 31 l-26 31 0 197 c0 140 3 200 12 209 7 7 39 12 74 12 l62 0 4 68 c2 37 2 70 0 75 -2 4 -31 7 -66 7 -35 0 -67 5 -74 12 -8 8 -12 50 -12 124 0 62 -3 114 -7 116 -5 2 -44 1 -88 -2z"/>
<path d="M3433 3593 c-7 -2 -13 -9 -13 -13 0 -5 -12 -28 -27 -52 -16 -24 -33 -52 -40 -63 -14 -24 -151 -246 -173 -280 -8 -13 -42 -67 -75 -121 -33 -53 -67 -107 -75 -120 -39 -60 -220 -363 -220 -368 0 -9 173 -7 186 2 10 7 105 157 134 212 29 57 40 59 226 60 121 0 175 -4 187 -12 14 -11 17 -35 19 -138 l3 -125 85 0 85 0 3 513 2 512 -147 -1 c-82 0 -154 -3 -160 -6z m127 -367 c0 -153 -3 -196 -14 -205 -9 -8 -54 -11 -132 -9 -134 3 -145 10 -102 70 13 18 28 42 35 53 166 277 183 302 205 289 5 -3 8 -92 8 -198z"/>
<path d="M3925 3588 c-3 -7 -4 -238 -3 -513 l3 -500 85 0 85 0 0 510 0 510 -83 3 c-60 2 -84 -1 -87 -10z"/>
<path d="M4280 3588 c0 -10 0 -951 0 -1005 0 -10 24 -13 85 -13 69 0 85 3 85 15 0 8 0 236 0 505 0 270 0 495 0 500 0 16 -170 13 -170 -2z"/>
<path d="M5345 3588 c-3 -7 -6 -62 -7 -123 l-3 -110 -45 -3 -45 -3 1 -67 c1 -37 2 -70 3 -74 1 -4 20 -8 44 -10 l42 -3 6 -225 c7 -247 15 -298 61 -347 46 -49 100 -64 209 -61 107 3 99 -6 84 106 l-8 52 -53 0 c-44 0 -58 5 -79 25 l-25 26 0 202 c0 145 3 206 12 215 7 7 39 12 75 12 l63 0 0 75 0 75 -59 0 c-94 0 -91 -5 -91 131 l0 119 -90 0 c-63 0 -92 -4 -95 -12z"/>
<path d="M4776 3353 c-45 -7 -103 -49 -133 -95 -25 -38 -28 -50 -27 -127 1 -136 36 -174 209 -225 169 -50 188 -64 183 -133 -3 -41 -7 -48 -38 -65 -56 -31 -163 -17 -292 40 -21 9 -38 19 -38 24 0 4 -4 8 -8 8 -5 0 -13 -26 -19 -57 -6 -32 -14 -66 -18 -75 -5 -13 2 -21 32 -33 82 -36 173 -55 259 -55 116 0 186 22 240 76 44 44 54 73 54 163 0 150 -52 197 -275 252 -88 21 -125 50 -125 96 0 41 27 70 74 79 46 8 150 -10 204 -36 22 -11 45 -20 49 -20 9 0 33 93 33 128 0 12 -6 22 -12 22 -7 0 -26 7 -43 16 -31 16 -247 28 -309 17z"/>
<path d="M5980 3353 c-19 -2 -48 -10 -65 -17 -16 -8 -39 -16 -50 -18 -18 -3 -20 -10 -17 -68 2 -36 8 -69 12 -74 8 -8 37 0 123 30 20 8 72 14 113 14 73 0 77 -1 110 -34 37 -37 46 -84 19 -106 -8 -7 -50 -18 -92 -24 -43 -7 -91 -18 -106 -24 -16 -7 -36 -12 -45 -12 -35 -1 -127 -76 -159 -130 -29 -47 -33 -63 -33 -121 0 -140 71 -209 216 -209 75 0 121 15 181 58 17 12 41 22 52 22 15 0 21 -6 21 -22 0 -43 12 -49 86 -46 l69 3 3 275 c2 168 -2 300 -8 340 -10 58 -16 70 -59 111 -39 37 -57 47 -96 52 -49 7 -212 7 -275 0z m250 -402 c5 -11 10 -54 10 -95 0 -88 -10 -102 -98 -143 -105 -49 -184 -3 -167 98 12 72 107 135 237 158 4 0 12 -8 18 -18z"/>
<path d="M7248 3353 c-14 -2 -32 -11 -38 -19 -7 -8 -18 -14 -25 -14 -14 0 -105 -98 -105 -113 0 -5 -7 -23 -14 -40 -33 -72 -44 -206 -26 -313 34 -195 153 -294 354 -294 90 0 171 17 237 51 58 29 62 39 48 108 -12 56 -29 76 -44 52 -18 -30 -144 -73 -214 -74 -106 -1 -183 63 -205 170 -11 51 -6 53 216 54 277 2 258 -4 258 78 0 67 -25 173 -53 227 -21 39 -66 85 -108 108 -27 16 -57 20 -144 22 -60 1 -122 0 -137 -3z m182 -128 c36 -18 66 -68 74 -122 10 -66 -4 -73 -142 -73 -64 0 -123 4 -131 9 -34 22 -3 123 52 174 35 31 99 37 147 12z"/>
</g>
</svg>